<mxfile host="app.diagrams.net" modified="2021-05-07T12:33:48.196Z" agent="5.0 (Macintosh)" etag="HmSIhWRajQSMpllxn2gq" version="14.6.6" type="github">
  <diagram name="Page-1" id="13e1069c-82ec-6db2-03f1-153e76fe0fe0">
    <mxGraphModel dx="1367" dy="680" grid="1" gridSize="10" guides="1" tooltips="1" connect="1" arrows="1" fold="1" page="1" pageScale="1" pageWidth="1100" pageHeight="850" background="#ffffff" math="0" shadow="0">
      <root>
        <mxCell id="0" />
        <mxCell id="1" parent="0" />
        <mxCell id="7baba1c4bc27f4b0-2" value=":认证系统" style="shape=umlLifeline;perimeter=lifelinePerimeter;whiteSpace=wrap;html=1;container=1;collapsible=0;recursiveResize=0;outlineConnect=0;rounded=1;shadow=0;comic=0;labelBackgroundColor=none;strokeWidth=1;fontFamily=Verdana;fontSize=12;align=center;" parent="1" vertex="1">
          <mxGeometry x="460" y="80" width="100" height="750" as="geometry" />
        </mxCell>
        <mxCell id="7baba1c4bc27f4b0-10" value="" style="html=1;points=[];perimeter=orthogonalPerimeter;rounded=0;shadow=0;comic=0;labelBackgroundColor=none;strokeWidth=1;fontFamily=Verdana;fontSize=12;align=center;" parent="7baba1c4bc27f4b0-2" vertex="1">
          <mxGeometry x="45" y="100" width="10" height="60" as="geometry" />
        </mxCell>
        <mxCell id="7baba1c4bc27f4b0-22" value="" style="html=1;points=[];perimeter=orthogonalPerimeter;rounded=0;shadow=0;comic=0;labelBackgroundColor=none;strokeWidth=1;fontFamily=Verdana;fontSize=12;align=center;" parent="7baba1c4bc27f4b0-2" vertex="1">
          <mxGeometry x="45" y="200" width="10" height="160" as="geometry" />
        </mxCell>
        <mxCell id="Eh_B3KTSV3emwL2XMp4S-7" value="" style="html=1;points=[];perimeter=orthogonalPerimeter;rounded=0;shadow=0;comic=0;labelBackgroundColor=none;strokeWidth=1;fontFamily=Verdana;fontSize=12;align=center;" vertex="1" parent="7baba1c4bc27f4b0-2">
          <mxGeometry x="45" y="390" width="10" height="140" as="geometry" />
        </mxCell>
        <mxCell id="Eh_B3KTSV3emwL2XMp4S-23" value="" style="html=1;points=[];perimeter=orthogonalPerimeter;" vertex="1" parent="7baba1c4bc27f4b0-2">
          <mxGeometry x="45" y="580" width="10" height="40" as="geometry" />
        </mxCell>
        <mxCell id="Eh_B3KTSV3emwL2XMp4S-32" value="" style="html=1;points=[];perimeter=orthogonalPerimeter;" vertex="1" parent="7baba1c4bc27f4b0-2">
          <mxGeometry x="45" y="630" width="10" height="80" as="geometry" />
        </mxCell>
        <mxCell id="7baba1c4bc27f4b0-3" value=":认证服务器系统" style="shape=umlLifeline;perimeter=lifelinePerimeter;whiteSpace=wrap;html=1;container=1;collapsible=0;recursiveResize=0;outlineConnect=0;rounded=1;shadow=0;comic=0;labelBackgroundColor=none;strokeWidth=1;fontFamily=Verdana;fontSize=12;align=center;" parent="1" vertex="1">
          <mxGeometry x="750" y="80" width="100" height="750" as="geometry" />
        </mxCell>
        <mxCell id="7baba1c4bc27f4b0-13" value="" style="html=1;points=[];perimeter=orthogonalPerimeter;rounded=0;shadow=0;comic=0;labelBackgroundColor=none;strokeWidth=1;fontFamily=Verdana;fontSize=12;align=center;" parent="7baba1c4bc27f4b0-3" vertex="1">
          <mxGeometry x="45" y="230" width="10" height="170" as="geometry" />
        </mxCell>
        <mxCell id="Eh_B3KTSV3emwL2XMp4S-14" value="" style="html=1;points=[];perimeter=orthogonalPerimeter;" vertex="1" parent="7baba1c4bc27f4b0-3">
          <mxGeometry x="45" y="440" width="10" height="140" as="geometry" />
        </mxCell>
        <mxCell id="Eh_B3KTSV3emwL2XMp4S-17" value="" style="html=1;points=[];perimeter=orthogonalPerimeter;" vertex="1" parent="7baba1c4bc27f4b0-3">
          <mxGeometry x="50" y="480" width="10" height="40" as="geometry" />
        </mxCell>
        <mxCell id="Eh_B3KTSV3emwL2XMp4S-18" value="判断用户是否合法" style="edgeStyle=orthogonalEdgeStyle;html=1;align=left;spacingLeft=2;endArrow=block;rounded=0;entryX=1;entryY=0;" edge="1" target="Eh_B3KTSV3emwL2XMp4S-17" parent="7baba1c4bc27f4b0-3">
          <mxGeometry x="0.0667" y="-5" relative="1" as="geometry">
            <mxPoint x="55" y="460" as="sourcePoint" />
            <Array as="points">
              <mxPoint x="85" y="460" />
            </Array>
            <mxPoint as="offset" />
          </mxGeometry>
        </mxCell>
        <mxCell id="Eh_B3KTSV3emwL2XMp4S-27" value="" style="html=1;points=[];perimeter=orthogonalPerimeter;" vertex="1" parent="7baba1c4bc27f4b0-3">
          <mxGeometry x="45" y="640" width="10" height="70" as="geometry" />
        </mxCell>
        <mxCell id="7baba1c4bc27f4b0-8" value=":请求者系统" style="shape=umlLifeline;perimeter=lifelinePerimeter;whiteSpace=wrap;html=1;container=1;collapsible=0;recursiveResize=0;outlineConnect=0;rounded=1;shadow=0;comic=0;labelBackgroundColor=none;strokeWidth=1;fontFamily=Verdana;fontSize=12;align=center;" parent="1" vertex="1">
          <mxGeometry x="100" y="80" width="145" height="750" as="geometry" />
        </mxCell>
        <mxCell id="7baba1c4bc27f4b0-9" value="" style="html=1;points=[];perimeter=orthogonalPerimeter;rounded=0;shadow=0;comic=0;labelBackgroundColor=none;strokeWidth=1;fontFamily=Verdana;fontSize=12;align=center;" parent="7baba1c4bc27f4b0-8" vertex="1">
          <mxGeometry x="65" y="100" width="10" height="440" as="geometry" />
        </mxCell>
        <mxCell id="7baba1c4bc27f4b0-39" value="&lt;div&gt;Challenged-Password&lt;/div&gt;" style="html=1;verticalAlign=bottom;endArrow=block;labelBackgroundColor=none;fontFamily=Verdana;fontSize=12;elbow=vertical;edgeStyle=orthogonalEdgeStyle;curved=1;entryX=1;entryY=0.286;entryPerimeter=0;exitX=1.038;exitY=0.345;exitPerimeter=0;" parent="7baba1c4bc27f4b0-8" edge="1">
          <mxGeometry relative="1" as="geometry">
            <mxPoint x="75.00333333333349" y="360" as="sourcePoint" />
            <mxPoint x="80.00333333333349" y="398.33333333333337" as="targetPoint" />
            <Array as="points">
              <mxPoint x="129.67000000000002" y="360" />
              <mxPoint x="129.67000000000002" y="398" />
            </Array>
          </mxGeometry>
        </mxCell>
        <mxCell id="7baba1c4bc27f4b0-37" value="" style="html=1;points=[];perimeter=orthogonalPerimeter;rounded=0;shadow=0;comic=0;labelBackgroundColor=none;strokeWidth=1;fontFamily=Verdana;fontSize=12;align=center;" parent="7baba1c4bc27f4b0-8" vertex="1">
          <mxGeometry x="70" y="379" width="10" height="40" as="geometry" />
        </mxCell>
        <mxCell id="Eh_B3KTSV3emwL2XMp4S-20" value="" style="html=1;points=[];perimeter=orthogonalPerimeter;" vertex="1" parent="7baba1c4bc27f4b0-8">
          <mxGeometry x="65" y="580" width="10" height="40" as="geometry" />
        </mxCell>
        <mxCell id="Eh_B3KTSV3emwL2XMp4S-21" value="如果认证成功" style="edgeStyle=orthogonalEdgeStyle;html=1;align=left;spacingLeft=2;endArrow=block;rounded=0;entryX=1;entryY=0;" edge="1" target="Eh_B3KTSV3emwL2XMp4S-20" parent="7baba1c4bc27f4b0-8">
          <mxGeometry relative="1" as="geometry">
            <mxPoint x="75" y="540" as="sourcePoint" />
            <Array as="points">
              <mxPoint x="105" y="540" />
            </Array>
          </mxGeometry>
        </mxCell>
        <mxCell id="7baba1c4bc27f4b0-23" value="回应一个EAP-Response/Identity报文，其中包括用户名" style="html=1;verticalAlign=bottom;endArrow=block;entryX=0;entryY=0;labelBackgroundColor=none;fontFamily=Verdana;fontSize=12;" parent="1" source="7baba1c4bc27f4b0-9" target="7baba1c4bc27f4b0-22" edge="1">
          <mxGeometry relative="1" as="geometry">
            <mxPoint x="510" y="420" as="sourcePoint" />
          </mxGeometry>
        </mxCell>
        <mxCell id="7baba1c4bc27f4b0-30" value="EAP-Request/MD5-Challenge" style="html=1;verticalAlign=bottom;endArrow=open;dashed=1;endSize=8;labelBackgroundColor=none;fontFamily=Verdana;fontSize=12;edgeStyle=elbowEdgeStyle;elbow=vertical;exitX=-0.1;exitY=0.894;exitDx=0;exitDy=0;exitPerimeter=0;entryX=1.1;entryY=0.552;entryDx=0;entryDy=0;entryPerimeter=0;" parent="1" source="7baba1c4bc27f4b0-22" target="7baba1c4bc27f4b0-9" edge="1">
          <mxGeometry relative="1" as="geometry">
            <mxPoint x="800" y="626" as="targetPoint" />
            <Array as="points" />
          </mxGeometry>
        </mxCell>
        <mxCell id="7baba1c4bc27f4b0-11" value="发送一个EAPoL-Start&lt;a target=&quot;_blank&quot; href=&quot;https://baike.baidu.com/item/%E6%8A%A5%E6%96%87&quot;&gt;报文&lt;/a&gt;，开始802.1x认证接入" style="html=1;verticalAlign=bottom;endArrow=block;entryX=0;entryY=0;labelBackgroundColor=none;fontFamily=Verdana;fontSize=12;edgeStyle=elbowEdgeStyle;elbow=vertical;" parent="1" source="7baba1c4bc27f4b0-9" target="7baba1c4bc27f4b0-10" edge="1">
          <mxGeometry relative="1" as="geometry">
            <mxPoint x="220" y="190" as="sourcePoint" />
          </mxGeometry>
        </mxCell>
        <mxCell id="7baba1c4bc27f4b0-14" value="&lt;div&gt;EAP-Response/Identity报文封装为&lt;/div&gt;&lt;div&gt;RADIUS Access-Request报文&lt;/div&gt;" style="html=1;verticalAlign=bottom;endArrow=block;labelBackgroundColor=none;fontFamily=Verdana;fontSize=12;edgeStyle=elbowEdgeStyle;elbow=vertical;exitX=1.1;exitY=0.313;exitDx=0;exitDy=0;exitPerimeter=0;entryX=0;entryY=0.112;entryDx=0;entryDy=0;entryPerimeter=0;" parent="1" source="7baba1c4bc27f4b0-22" target="7baba1c4bc27f4b0-13" edge="1">
          <mxGeometry x="-0.0429" y="1" relative="1" as="geometry">
            <mxPoint x="520" y="300" as="sourcePoint" />
            <mxPoint x="780" y="315" as="targetPoint" />
            <Array as="points">
              <mxPoint x="640" y="330" />
              <mxPoint x="660" y="315" />
            </Array>
            <mxPoint as="offset" />
          </mxGeometry>
        </mxCell>
        <mxCell id="7baba1c4bc27f4b0-34" value="" style="html=1;points=[];perimeter=orthogonalPerimeter;rounded=0;shadow=0;comic=0;labelBackgroundColor=none;strokeWidth=1;fontFamily=Verdana;fontSize=12;align=center;" parent="1" vertex="1">
          <mxGeometry x="800" y="367.9" width="10" height="70" as="geometry" />
        </mxCell>
        <mxCell id="7baba1c4bc27f4b0-35" value="challenge" style="html=1;verticalAlign=bottom;endArrow=block;labelBackgroundColor=none;fontFamily=Verdana;fontSize=12;elbow=vertical;edgeStyle=orthogonalEdgeStyle;curved=1;entryX=1;entryY=0.286;entryPerimeter=0;exitX=1.038;exitY=0.345;exitPerimeter=0;" parent="1" target="7baba1c4bc27f4b0-34" edge="1">
          <mxGeometry relative="1" as="geometry">
            <mxPoint x="805.3800000000001" y="340" as="sourcePoint" />
            <mxPoint x="805" y="287.9" as="targetPoint" />
            <Array as="points">
              <mxPoint x="860" y="339.95" />
              <mxPoint x="860" y="387.95" />
            </Array>
          </mxGeometry>
        </mxCell>
        <mxCell id="7baba1c4bc27f4b0-40" value="位于&lt;a target=&quot;_blank&quot; href=&quot;https://baike.baidu.com/item/%E5%B1%80%E5%9F%9F%E7%BD%91&quot;&gt;局域网&lt;/a&gt;链路一端的实体" style="shape=note;whiteSpace=wrap;html=1;size=14;verticalAlign=top;align=left;spacingTop=-6;rounded=0;shadow=0;comic=0;labelBackgroundColor=none;strokeWidth=1;fontFamily=Verdana;fontSize=12" parent="1" vertex="1">
          <mxGeometry x="100" y="30" width="100" height="35" as="geometry" />
        </mxCell>
        <mxCell id="7baba1c4bc27f4b0-41" value="通常为支持802. 1x协议的&lt;a target=&quot;_blank&quot; href=&quot;https://baike.baidu.com/item/%E7%BD%91%E7%BB%9C%E8%AE%BE%E5%A4%87&quot;&gt;网络设备&lt;/a&gt;" style="shape=note;whiteSpace=wrap;html=1;size=14;verticalAlign=top;align=left;spacingTop=-6;rounded=0;shadow=0;comic=0;labelBackgroundColor=none;strokeWidth=1;fontFamily=Verdana;fontSize=12" parent="1" vertex="1">
          <mxGeometry x="460" y="30" width="100" height="35" as="geometry" />
        </mxCell>
        <mxCell id="7baba1c4bc27f4b0-42" value="提供认证服务的实体，比如Radius" style="shape=note;whiteSpace=wrap;html=1;size=14;verticalAlign=top;align=left;spacingTop=-6;rounded=0;shadow=0;comic=0;labelBackgroundColor=none;strokeWidth=1;fontFamily=Verdana;fontSize=12" parent="1" vertex="1">
          <mxGeometry x="750" y="30" width="100" height="35" as="geometry" />
        </mxCell>
        <mxCell id="Eh_B3KTSV3emwL2XMp4S-3" value="发送EAP-Request/Identity报文，要求客户端将用户名送上来" style="html=1;verticalAlign=bottom;endArrow=open;dashed=1;endSize=8;entryX=1;entryY=0.093;entryDx=0;entryDy=0;entryPerimeter=0;" edge="1" parent="1" target="7baba1c4bc27f4b0-9">
          <mxGeometry relative="1" as="geometry">
            <mxPoint x="500" y="220" as="sourcePoint" />
            <mxPoint x="156" y="220" as="targetPoint" />
          </mxGeometry>
        </mxCell>
        <mxCell id="Eh_B3KTSV3emwL2XMp4S-5" value="RADIUS Access-Challenge" style="html=1;verticalAlign=bottom;endArrow=open;dashed=1;endSize=8;entryX=0.9;entryY=0.786;entryDx=0;entryDy=0;entryPerimeter=0;" edge="1" parent="1">
          <mxGeometry relative="1" as="geometry">
            <mxPoint x="800" y="413.95" as="sourcePoint" />
            <mxPoint x="514" y="413.98999999999995" as="targetPoint" />
          </mxGeometry>
        </mxCell>
        <mxCell id="Eh_B3KTSV3emwL2XMp4S-10" value="EAP-Response/MD5-Challenge" style="html=1;verticalAlign=bottom;endArrow=block;exitX=1;exitY=0.85;exitDx=0;exitDy=0;exitPerimeter=0;entryX=-0.1;entryY=0.157;entryDx=0;entryDy=0;entryPerimeter=0;" edge="1" parent="1" source="7baba1c4bc27f4b0-37" target="Eh_B3KTSV3emwL2XMp4S-7">
          <mxGeometry width="80" relative="1" as="geometry">
            <mxPoint x="250" y="600" as="sourcePoint" />
            <mxPoint x="500" y="489" as="targetPoint" />
          </mxGeometry>
        </mxCell>
        <mxCell id="Eh_B3KTSV3emwL2XMp4S-15" value="发送Challenge，Challenged Password和用户名" style="html=1;verticalAlign=bottom;endArrow=block;entryX=0;entryY=0;exitX=1.2;exitY=0.35;exitDx=0;exitDy=0;exitPerimeter=0;" edge="1" target="Eh_B3KTSV3emwL2XMp4S-14" parent="1" source="Eh_B3KTSV3emwL2XMp4S-7">
          <mxGeometry relative="1" as="geometry">
            <mxPoint x="725" y="520" as="sourcePoint" />
          </mxGeometry>
        </mxCell>
        <mxCell id="Eh_B3KTSV3emwL2XMp4S-16" value="认证成功/失败报文" style="html=1;verticalAlign=bottom;endArrow=open;dashed=1;endSize=8;exitX=-0.3;exitY=0.529;entryX=1;entryY=0.9;entryDx=0;entryDy=0;entryPerimeter=0;exitDx=0;exitDy=0;exitPerimeter=0;" edge="1" source="Eh_B3KTSV3emwL2XMp4S-14" parent="1" target="Eh_B3KTSV3emwL2XMp4S-7">
          <mxGeometry relative="1" as="geometry">
            <mxPoint x="725" y="596" as="targetPoint" />
          </mxGeometry>
        </mxCell>
        <mxCell id="Eh_B3KTSV3emwL2XMp4S-19" value="认证成功或失败" style="html=1;verticalAlign=bottom;endArrow=open;dashed=1;endSize=8;exitX=0.1;exitY=0.971;exitDx=0;exitDy=0;exitPerimeter=0;entryX=1.1;entryY=0.966;entryDx=0;entryDy=0;entryPerimeter=0;" edge="1" parent="1" source="Eh_B3KTSV3emwL2XMp4S-7" target="7baba1c4bc27f4b0-9">
          <mxGeometry relative="1" as="geometry">
            <mxPoint x="500" y="600" as="sourcePoint" />
            <mxPoint x="420" y="600" as="targetPoint" />
          </mxGeometry>
        </mxCell>
        <mxCell id="Eh_B3KTSV3emwL2XMp4S-24" value="" style="edgeStyle=orthogonalEdgeStyle;rounded=0;orthogonalLoop=1;jettySize=auto;html=1;" edge="1" parent="1" source="Eh_B3KTSV3emwL2XMp4S-20" target="Eh_B3KTSV3emwL2XMp4S-23">
          <mxGeometry relative="1" as="geometry">
            <Array as="points">
              <mxPoint x="420" y="680" />
              <mxPoint x="420" y="680" />
            </Array>
          </mxGeometry>
        </mxCell>
        <mxCell id="Eh_B3KTSV3emwL2XMp4S-26" value="&lt;div&gt;通过DHCP协议获取规划的IP地址&lt;/div&gt;" style="edgeLabel;html=1;align=center;verticalAlign=middle;resizable=0;points=[];" vertex="1" connectable="0" parent="Eh_B3KTSV3emwL2XMp4S-24">
          <mxGeometry x="-0.103" y="-2" relative="1" as="geometry">
            <mxPoint x="5" y="-12" as="offset" />
          </mxGeometry>
        </mxCell>
        <mxCell id="Eh_B3KTSV3emwL2XMp4S-28" value="" style="edgeStyle=orthogonalEdgeStyle;rounded=0;orthogonalLoop=1;jettySize=auto;html=1;" edge="1" parent="1" source="Eh_B3KTSV3emwL2XMp4S-32" target="Eh_B3KTSV3emwL2XMp4S-27">
          <mxGeometry relative="1" as="geometry">
            <mxPoint x="510" y="750" as="sourcePoint" />
            <Array as="points">
              <mxPoint x="510" y="750" />
              <mxPoint x="800" y="750" />
            </Array>
          </mxGeometry>
        </mxCell>
        <mxCell id="Eh_B3KTSV3emwL2XMp4S-29" value="发起计费开始请求" style="edgeLabel;html=1;align=center;verticalAlign=middle;resizable=0;points=[];" vertex="1" connectable="0" parent="Eh_B3KTSV3emwL2XMp4S-28">
          <mxGeometry x="-0.1286" y="-2" relative="1" as="geometry">
            <mxPoint y="-17" as="offset" />
          </mxGeometry>
        </mxCell>
        <mxCell id="Eh_B3KTSV3emwL2XMp4S-30" value="IP地址" style="html=1;verticalAlign=bottom;endArrow=open;dashed=1;endSize=8;" edge="1" parent="1" target="7baba1c4bc27f4b0-8">
          <mxGeometry relative="1" as="geometry">
            <mxPoint x="500" y="700" as="sourcePoint" />
            <mxPoint x="420" y="700" as="targetPoint" />
          </mxGeometry>
        </mxCell>
        <mxCell id="Eh_B3KTSV3emwL2XMp4S-31" value="回应计费开始请求报文，用户上线完毕" style="html=1;verticalAlign=bottom;endArrow=open;dashed=1;endSize=8;" edge="1" parent="1" target="7baba1c4bc27f4b0-2">
          <mxGeometry relative="1" as="geometry">
            <mxPoint x="790" y="780" as="sourcePoint" />
            <mxPoint x="710" y="780" as="targetPoint" />
          </mxGeometry>
        </mxCell>
      </root>
    </mxGraphModel>
  </diagram>
</mxfile>
